<svg width="14" height="14" viewBox="0 0 14 14" fill="none" xmlns="http://www.w3.org/2000/svg">
<path d="M13.8086 0.546875C14 1.42188 14 2.10547 13.9727 2.78906C13.9727 5.60547 12.4688 7.30078 10.4727 8.55859V11.4297C10.4727 11.8672 10.1719 12.3867 9.76172 12.6055L7.05469 13.9453C6.97266 13.9727 6.86328 14 6.78125 14C6.39844 14 6.125 13.7266 6.09766 13.3438V10.5273L5.49609 11.1289C5.14062 11.4844 4.56641 11.4297 4.26562 11.1289L2.87109 9.73438C2.51562 9.37891 2.54297 8.80469 2.87109 8.50391L3.47266 7.875H0.65625C0.273438 7.875 0 7.60156 0 7.21875C0 7.13672 0.0273438 7.02734 0.0546875 6.94531L1.39453 4.23828C1.61328 3.82812 2.13281 3.52734 2.57031 3.5H5.44141C6.69922 1.53125 8.39453 0 11.2109 0C11.8945 0 12.5781 0 13.4531 0.191406C13.6172 0.246094 13.7539 0.382812 13.8086 0.546875ZM10.5 4.59375C11.1016 4.59375 11.5938 4.12891 11.5938 3.5C11.5938 2.89844 11.1016 2.40625 10.5 2.40625C9.87109 2.40625 9.40625 2.89844 9.40625 3.5C9.40625 4.12891 9.87109 4.59375 10.5 4.59375Z" fill="url(#paint0_linear_7063_1603)"/>
<defs>
<linearGradient id="paint0_linear_7063_1603" x1="7" y1="-8.04412" x2="7" y2="15.25" gradientUnits="userSpaceOnUse">
<stop stop-color="#F2AC35"/>
<stop offset="1" stop-color="#F0672C"/>
</linearGradient>
</defs>
</svg>
